# This file uses meters as units for non-parametric coordinates.

mtllib KitchenWall1018_1.mtl
g default
v 276.801270 160.289551 -151.384964
v 276.801270 256.010742 -151.384949
v 276.801270 256.010803 -190.960785
v 276.801270 160.289612 -190.960800
v 271.839935 160.289581 -101.755127
v 271.839935 256.010559 -101.755142
v 271.839935 256.010742 -141.330994
v 271.839935 160.289551 -141.330994
vt 0.413460 0.001992
vt 0.413461 0.998007
vt 0.001659 0.998008
vt 0.001659 0.001993
vt 0.831117 0.001992
vt 0.831116 0.998005
vt 0.419315 0.998007
vt 0.419315 0.001992
vn -1.000000 0.000000 0.000000
vn -1.000000 0.000000 0.000000
vn -1.000000 0.000000 0.000000
vn -1.000000 0.000000 0.000000
vn -1.000000 0.000000 0.000000
vn -1.000000 0.000000 0.000000
vn -1.000000 0.000000 0.000000
vn -1.000000 0.000000 0.000000
s off
g WimdowsGlass KichenWall kichen
usemtl lambert13SG
f 1/1/1 2/2/2 3/3/3 4/4/4
f 5/5/5 6/6/6 7/7/7 8/8/8
g default
v -272.290588 160.289551 184.290207
v -272.290588 256.010742 184.290192
v -272.290588 256.010803 223.866028
v -272.290588 160.289612 223.866043
v -267.230011 160.289581 134.660370
v -267.230011 256.010559 134.660385
v -267.230011 256.010742 174.236237
v -267.230011 160.289551 174.236237
vt 0.413461 0.001992
vt 0.413461 0.998007
vt 0.001659 0.998008
vt 0.001659 0.001993
vt 0.831116 0.998005
vt 0.419315 0.998007
vt 0.419315 0.001992
vt 0.831117 0.001992
vn 1.000000 0.000000 0.000000
vn 1.000000 0.000000 0.000000
vn 1.000000 0.000000 0.000000
vn 1.000000 0.000000 0.000000
vn 1.000000 0.000000 0.000000
vn 1.000000 0.000000 0.000000
vn 1.000000 0.000000 0.000000
vn 1.000000 0.000000 0.000000
s off
g KichenWall kichen WimdowsGlass1
usemtl lambert13SG
f 9/9/9 10/10/10 11/11/11 12/12/12
f 14/13/13 15/14/14 16/15/15 13/16/16
g default
v 253.080612 -4.968704 -247.125870
v 253.080612 356.383789 -247.125870
v -249.456787 -4.968704 -247.125870
v -249.456787 356.383759 -247.125870
v 253.080612 -4.968704 -27.328598
v 253.080612 356.383728 -27.328537
v 268.391907 155.699768 -96.728149
v 268.391907 260.600464 -96.728165
v 273.353333 260.600525 -146.357971
v 273.353333 155.699677 -146.357971
v 273.353333 260.600586 -195.987762
v 273.353333 155.699799 -195.987778
v 271.839935 160.289581 -101.755127
v 271.839935 256.010559 -101.755142
v 271.839935 256.010742 -141.330994
v 271.839935 160.289551 -141.330994
v 276.900482 256.010742 -151.384949
v 276.900482 160.289551 -151.384964
v 276.900482 256.010803 -190.960785
v 276.900482 160.289612 -190.960800
v 256.177582 151.074463 -89.972397
v 255.991470 149.291733 -90.680397
v 255.803299 148.560028 -92.407791
v 254.079895 147.690369 -91.103531
v 253.080612 145.589386 -87.972313
v 254.190979 149.468384 -89.386559
v 255.876801 267.740295 -92.481316
v 255.876556 267.005371 -90.707214
v 255.876801 265.231262 -89.972382
v 254.102707 266.643188 -89.182938
v 253.080612 270.051636 -87.277115
v 254.102707 268.417297 -90.957047
v 256.377625 265.253448 -202.743561
v 256.006195 267.031616 -202.025772
v 255.638153 267.740326 -200.228867
v 254.032944 268.681244 -201.436768
v 253.080612 270.952698 -204.354126
v 254.248840 266.924866 -203.215271
v 255.630753 148.560043 -200.215271
v 256.138031 149.242096 -202.038422
v 256.638794 151.013672 -202.743576
v 254.324341 149.358368 -203.012878
v 253.080612 145.384674 -203.662781
v 254.030945 147.629913 -201.223724
v 264.647858 149.848663 -91.191719
v 264.647858 148.560028 -92.481300
v 264.647858 149.294876 -90.707230
v 264.647858 151.068970 -89.972397
v 264.647858 266.451660 -91.191681
v 264.647858 265.231262 -89.972382
v 264.647858 267.005371 -90.707214
v 264.647858 267.740295 -92.481316
v 264.647858 266.451691 -201.524231
v 264.647858 267.740326 -200.234634
v 264.647858 267.005493 -202.008713
v 264.647858 265.231384 -202.743561
v 264.647858 149.848679 -201.524261
v 264.647858 151.068970 -202.743576
v 264.647858 149.294891 -202.008728
v 264.647858 148.560043 -200.234650
v 254.469910 148.798676 -90.324585
v 254.421097 267.404541 -90.250710
v 254.476501 267.553772 -202.312683
v 254.535126 148.739166 -202.210358
v 265.056946 155.699768 -96.728149
v 264.647858 155.290680 -96.319061
v 265.056946 260.600464 -96.728165
v 264.647858 261.009521 -96.319069
v 265.056946 260.600586 -195.987762
v 264.647858 261.009644 -196.396851
v 265.056946 155.699799 -195.987762
v 264.647858 155.290710 -196.396851
v 268.391907 260.227020 -145.948883
v 268.391907 260.600525 -146.068695
v 268.370148 260.600525 -146.646423
v 268.800995 260.600525 -146.357971
v 268.391907 156.073181 -145.948898
v 268.800995 155.699677 -146.357971
v 268.370148 155.699677 -146.646423
v 268.391907 155.699677 -146.068512
v 268.391907 159.880493 -101.346039
v 268.800995 160.289581 -101.755127
v 268.391907 256.419617 -101.346039
v 268.800995 256.010559 -101.755142
v 268.391907 256.419830 -141.740082
v 268.800995 256.010742 -141.330994
v 268.391907 159.880463 -141.740082
v 268.800995 160.289551 -141.330994
v 273.353333 256.419830 -150.975861
v 273.762421 256.010742 -151.384949
v 273.353333 159.880463 -150.975861
v 273.762421 160.289551 -151.384964
v 273.353333 256.419891 -191.369873
v 273.762421 256.010803 -190.960785
v 273.353333 159.880524 -191.369888
v 273.762421 160.289612 -190.960800
v 198.710510 -4.968704 -27.328598
v 198.710510 356.383759 -27.328537
v 198.710510 -4.968704 22.063240
v 198.710510 356.383759 22.063301
v 253.080627 -4.968704 22.063240
v 253.080627 356.383759 22.063301
v -249.456757 356.383759 42.442024
v -249.456757 -4.968704 42.442047
v -221.105438 356.383759 42.442024
v -221.105438 -4.968704 42.442047
v -221.105438 356.383759 89.492401
v -221.105438 -4.968704 89.492462
v -249.456757 356.383759 89.492401
v -249.456757 -4.968704 89.492462
v -249.456757 356.383759 347.273163
v -249.456757 -4.968704 347.273163
v 253.080643 356.383759 347.273193
v 253.080643 -4.968704 347.273193
v 276.900482 260.785645 -144.852737
v 276.900482 155.514679 -144.852737
v 276.900482 260.785614 -196.112091
v 276.900482 155.514679 -196.112106
v 271.839935 155.514694 -97.849525
v 271.839935 260.785614 -97.849541
v 271.839935 260.785614 -144.852692
v 271.839935 155.514694 -144.852692
v 276.900482 155.514694 -97.849525
v 276.900482 260.785614 -97.849541
v 276.900513 -8.182854 355.100525
v 276.900513 363.495361 355.100525
v 276.900482 363.495361 -254.953262
v 276.900482 -8.182854 -254.953262
v -272.290558 -8.182854 -254.953186
v -272.290558 363.495361 -254.953186
v -272.290588 -8.182854 355.100525
v -272.290588 363.495361 355.100525
v -263.781982 155.699768 129.633392
v -263.781982 260.600464 129.633408
v -268.743408 260.600525 179.263214
v -268.743408 155.699677 179.263214
v -268.743408 260.600586 228.893005
v -268.743408 155.699799 228.893021
v -267.230011 160.289581 134.660370
v -267.230011 256.010559 134.660385
v -267.230011 256.010742 174.236237
v -267.230011 160.289551 174.236237
v -272.290588 256.010742 184.290192
v -272.290588 160.289551 184.290207
v -272.290588 256.010803 223.866028
v -272.290588 160.289612 223.866043
v -251.567657 151.074463 122.877632
v -251.381546 149.291733 123.585625
v -251.193375 148.560028 125.313026
v -249.469971 147.690369 124.008766
v -249.456757 145.589386 120.877541
v -249.581055 149.468384 122.291786
v -251.266876 267.740295 125.386559
v -251.266632 267.005371 123.612450
v -251.266876 265.231262 122.877617
v -249.492783 266.643188 122.088173
v -249.456757 270.051636 120.182350
v -249.492783 268.417297 123.862282
v -251.767700 265.253448 235.648804
v -251.396271 267.031616 234.931015
v -251.028229 267.740326 233.134109
v -249.423019 268.681244 234.342010
v -249.456757 270.952698 237.259369
v -249.638916 266.924866 236.120514
v -251.020828 148.560043 233.120514
v -251.528107 149.242096 234.943665
v -252.028870 151.013672 235.648819
v -249.714417 149.358368 235.918121
v -249.456757 145.384674 236.568024
v -249.421021 147.629913 234.128967
v -260.037933 149.848663 124.096947
v -260.037933 148.560028 125.386528
v -260.037933 149.294876 123.612465
v -260.037933 151.068970 122.877632
v -260.037933 266.451660 124.096916
v -260.037933 265.231262 122.877617
v -260.037933 267.005371 123.612450
v -260.037933 267.740295 125.386559
v -260.037933 266.451691 234.429474
v -260.037933 267.740326 233.139877
v -260.037933 267.005493 234.913956
v -260.037933 265.231384 235.648804
v -260.037933 149.848679 234.429504
v -260.037933 151.068970 235.648819
v -260.037933 149.294891 234.913971
v -260.037933 148.560043 233.139893
v -249.859985 148.798676 123.229820
v -249.811172 267.404541 123.155937
v -249.866577 267.553772 235.217926
v -249.925201 148.739166 235.115601
v -260.447021 155.699768 129.633392
v -260.037933 155.290680 129.224304
v -260.447021 260.600464 129.633408
v -260.037933 261.009521 129.224304
v -260.447021 260.600586 228.893005
v -260.037933 261.009644 229.302094
v -260.447021 155.699799 228.893005
v -260.037933 155.290710 229.302094
v -263.781982 260.227020 178.854126
v -263.781982 260.600525 178.973938
v -263.760223 260.600525 179.551666
v -264.191071 260.600525 179.263214
v -263.781982 156.073181 178.854141
v -264.191071 155.699677 179.263214
v -263.760223 155.699677 179.551666
v -263.781982 155.699677 178.973755
v -263.781982 159.880493 134.251282
v -264.191071 160.289581 134.660370
v -263.781982 256.419617 134.251282
v -264.191071 256.010559 134.660385
v -263.781982 256.419830 174.645325
v -264.191071 256.010742 174.236237
v -263.781982 159.880463 174.645325
v -264.191071 160.289551 174.236237
v -268.743408 256.419830 183.881104
v -269.152496 256.010742 184.290192
v -268.743408 159.880463 183.881104
v -269.152496 160.289551 184.290207
v -268.743408 256.419891 224.275116
v -269.152496 256.010803 223.866028
v -268.743408 159.880524 224.275131
v -269.152496 160.289612 223.866043
v -272.290588 260.785645 177.757980
v -272.290588 155.514679 177.757980
v -272.290588 260.785614 229.017334
v -272.290588 155.514679 229.017349
v -267.230011 155.514694 130.754761
v -267.230011 260.785614 130.754791
v -267.230011 260.785614 177.757935
v -267.230011 155.514694 177.757935
v -272.290588 155.514694 130.754761
v -272.290588 260.785614 130.754791
v -249.456757 240.750397 42.442032
v -249.456757 -4.968704 -69.257210
v -249.456772 240.750397 -69.257195
v -517.943909 290.957550 -69.257195
v -517.943909 -4.968704 -69.257210
v -517.943909 290.957550 42.442032
v -517.943909 -4.968704 42.442047
v -272.290588 -8.182854 53.076927
v -272.290588 252.084518 53.076927
v -272.290588 252.084518 -79.892662
v -272.290588 -8.182854 -79.892662
v -527.887207 302.291687 53.076927
v -527.887207 -8.182854 53.076927
v -527.887207 302.291687 -79.892662
v -527.887207 -8.182854 -79.892662
v -278.328186 252.084518 53.076927
v -278.328186 252.084518 -79.892662
v -278.328186 -8.182854 -79.892662
v -278.328186 -8.182854 53.076927
v -283.632141 240.750412 -69.257202
v -283.632141 240.750412 42.442032
v -283.632141 -4.968704 42.442051
v -283.632141 -4.968704 -69.257210
v -283.632141 290.957581 -69.257202
v -283.632141 290.957581 42.442032
v -278.328186 302.291687 53.076927
v -278.328186 302.291687 -79.892662
vt 0.960235 0.276813
vt 0.960235 0.538456
vt 0.916828 0.475946
vt 0.916324 0.385827
vt 0.801087 0.538457
vt 0.832056 0.476599
vt 0.915300 0.388636
vt 0.915448 0.473478
vt 0.801087 0.276813
vt 0.832557 0.385679
vt 0.914163 0.474763
vt 0.834169 0.474954
vt 0.914057 0.387348
vt 0.914621 0.388151
vt 0.914675 0.474030
vt 0.834323 0.387305
vt 0.832881 0.473682
vt 0.833027 0.388556
vt 0.833534 0.474138
vt 0.914364 0.388508
vt 0.913113 0.387978
vt 0.913060 0.474273
vt 0.914344 0.473741
vt 0.914876 0.472456
vt 0.833608 0.388108
vt 0.833742 0.473760
vt 0.835043 0.474273
vt 0.172091 0.818531
vt 0.171158 0.817599
vt 0.172442 0.818130
vt 0.092280 0.818531
vt 0.093213 0.817599
vt 0.168382 0.822467
vt 0.095989 0.822467
vt 0.172973 0.819413
vt 0.091930 0.818130
vt 0.172973 0.901995
vt 0.172091 0.902878
vt 0.168382 0.898941
vt 0.168086 0.822763
vt 0.096285 0.822763
vt 0.092280 0.902878
vt 0.091398 0.901995
vt 0.091398 0.819413
vt 0.095989 0.898941
vt 0.172442 0.903278
vt 0.171158 0.903810
vt 0.093213 0.903810
vt 0.168086 0.898645
vt 0.096285 0.898645
vt 0.091930 0.903278
vt 0.136232 0.915365
vt 0.136232 0.991514
vt 0.132880 0.988479
vt 0.132880 0.918400
vt 0.100415 0.991514
vt 0.100502 0.991243
vt 0.103557 0.988479
vt 0.132583 0.918697
vt 0.132583 0.988182
vt 0.100502 0.915636
vt 0.100415 0.915365
vt 0.103557 0.918400
vt 0.103854 0.988182
vt 0.103854 0.918697
vt 0.100205 0.991514
vt 0.100205 0.915365
vt 0.257860 0.820879
vt 0.257860 0.896900
vt 0.254513 0.893870
vt 0.254513 0.823909
vt 0.221893 0.896900
vt 0.225240 0.893870
vt 0.254217 0.893574
vt 0.254217 0.824206
vt 0.221893 0.820879
vt 0.225240 0.823909
vt 0.225536 0.893574
vt 0.225536 0.824206
vt 0.910617 0.809809
vt 0.910617 0.549092
vt 0.946254 0.549092
vt 0.946254 0.809809
vt 0.552536 0.705097
vt 0.552536 0.444380
vt 0.787177 0.444380
vt 0.787177 0.705097
vt 0.086796 -0.343741
vt 0.134979 -0.343741
vt 0.137382 -0.340453
vt 0.084392 -0.340453
vt 0.134979 -0.363663
vt 0.137382 -0.366256
vt 0.086796 -0.363663
vt 0.084392 -0.366256
vt 0.189083 -0.395874
vt 0.001992 -0.395874
vt 0.137382 -0.316793
vt 0.189083 -0.088793
vt 0.084392 -0.316793
vt 0.001992 -0.088793
vt 0.226577 0.917169
vt 0.226577 0.986233
vt 0.223759 0.989678
vt 0.223759 0.913724
vt 0.255131 0.986233
vt 0.257672 0.989678
vt 0.255131 0.917169
vt 0.257672 0.913724
vt 0.949574 0.004883
vt 0.949574 0.266177
vt 0.927382 0.203751
vt 0.926879 0.113752
vt 0.763172 0.266177
vt 0.842724 0.204402
vt 0.925857 0.116557
vt 0.926004 0.201286
vt 0.763172 0.004883
vt 0.843223 0.113604
vt 0.924721 0.202569
vt 0.844833 0.202760
vt 0.924615 0.115271
vt 0.925178 0.116072
vt 0.925232 0.201836
vt 0.844987 0.115227
vt 0.843547 0.201490
vt 0.843693 0.116477
vt 0.844200 0.201944
vt 0.924921 0.116429
vt 0.923672 0.115900
vt 0.923619 0.202079
vt 0.924902 0.201548
vt 0.925433 0.200265
vt 0.844274 0.116029
vt 0.844407 0.201567
vt 0.845706 0.202079
vt 0.085576 0.818531
vt 0.084643 0.817599
vt 0.085926 0.818130
vt 0.005765 0.818531
vt 0.006698 0.817599
vt 0.081867 0.822467
vt 0.009474 0.822467
vt 0.086458 0.819413
vt 0.005414 0.818130
vt 0.086458 0.901995
vt 0.085576 0.902878
vt 0.081867 0.898941
vt 0.081571 0.822763
vt 0.009770 0.822763
vt 0.005765 0.902878
vt 0.004883 0.901995
vt 0.004883 0.819413
vt 0.009474 0.898941
vt 0.085926 0.903278
vt 0.084643 0.903810
vt 0.006698 0.903810
vt 0.081571 0.898645
vt 0.009770 0.898645
vt 0.005414 0.903278
vt 0.216478 0.820879
vt 0.216478 0.897028
vt 0.213126 0.893993
vt 0.213126 0.823914
vt 0.180661 0.897028
vt 0.180748 0.896757
vt 0.183804 0.893994
vt 0.212829 0.824211
vt 0.212829 0.893696
vt 0.180748 0.821150
vt 0.180661 0.820879
vt 0.183804 0.823914
vt 0.184100 0.893697
vt 0.184100 0.824211
vt 0.180451 0.897028
vt 0.180451 0.820879
vt 0.216909 0.914709
vt 0.216909 0.990730
vt 0.213563 0.987700
vt 0.213563 0.917738
vt 0.180943 0.990730
vt 0.184289 0.987700
vt 0.213266 0.987404
vt 0.213266 0.918035
vt 0.180943 0.914709
vt 0.184289 0.917739
vt 0.184586 0.987404
vt 0.184586 0.918035
vt 0.961170 0.809809
vt 0.961170 0.549092
vt 0.995117 0.549092
vt 0.995117 0.809809
vt 0.847082 -0.309894
vt 0.895265 -0.309894
vt 0.897669 -0.306606
vt 0.844679 -0.306606
vt 0.895265 -0.329815
vt 0.897669 -0.332408
vt 0.847082 -0.329815
vt 0.844679 -0.332408
vt 0.949369 -0.395874
vt 0.762278 -0.395874
vt 0.897669 -0.282946
vt 0.948170 -0.089706
vt 0.844679 -0.282946
vt 0.762278 -0.088793
vt 0.143689 0.920122
vt 0.143689 0.989185
vt 0.140871 0.992631
vt 0.140871 0.916677
vt 0.172243 0.989185
vt 0.174784 0.992631
vt 0.172243 0.920122
vt 0.174784 0.916677
vt 0.845030 0.471068
vt 0.838443 0.471054
vt 0.838569 0.392303
vt 0.845030 0.392356
vt 0.838814 0.472385
vt 0.845030 0.472364
vt 0.837310 0.391350
vt 0.837274 0.471790
vt 0.838707 0.391041
vt 0.845030 0.391061
vt 0.837643 0.472511
vt 0.839180 0.472900
vt 0.837489 0.473097
vt 0.874031 0.469891
vt 0.867641 0.469891
vt 0.867467 0.391384
vt 0.874031 0.391380
vt 0.867641 0.471184
vt 0.874031 0.471184
vt 0.866348 0.471002
vt 0.866297 0.390504
vt 0.867735 0.390075
vt 0.874031 0.390087
vt 0.029630 0.897054
vt 0.029630 0.825433
vt 0.032021 0.861036
vt 0.032037 0.861452
vt 0.032037 0.897054
vt 0.032332 0.861244
vt 0.035616 0.825433
vt 0.035616 0.861244
vt 0.032037 0.861539
vt 0.021867 0.897054
vt 0.021867 0.825433
vt 0.024274 0.825433
vt 0.024274 0.861035
vt 0.024258 0.861452
vt 0.024274 0.860948
vt 0.024569 0.861243
vt 0.027854 0.861243
vt 0.027854 0.897054
vt 0.012094 0.895873
vt 0.012094 0.867319
vt 0.014287 0.867319
vt 0.014287 0.895873
vt 0.229231 0.857616
vt 0.229231 0.829062
vt 0.231423 0.829062
vt 0.231423 0.857616
vt 0.789023 0.420916
vt 0.789023 0.392362
vt 0.791287 0.392362
vt 0.791287 0.420916
vt 0.191390 0.856388
vt 0.191390 0.827834
vt 0.193654 0.827834
vt 0.193654 0.856388
vt 0.004883 0.004883
vt 0.367466 0.004883
vt 0.367466 0.163468
vt 0.328238 0.163468
vt 0.025339 0.213807
vt 0.004883 0.213807
vt 0.328238 0.199104
vt 0.025339 0.247754
vt 0.367466 0.433744
vt 0.367466 0.199104
vt 0.004883 0.433744
vt 0.004883 0.247754
vt 0.746611 0.433744
vt 0.384028 0.433744
vt 0.707382 0.275160
vt 0.746611 0.275160
vt 0.384028 0.224820
vt 0.404483 0.224820
vt 0.707382 0.239523
vt 0.404483 0.190873
vt 0.746611 0.239523
vt 0.746611 0.004883
vt 0.384028 0.190873
vt 0.384028 0.004883
vt 0.200827 0.860599
vt 0.200827 0.826686
vt 0.204478 0.826686
vt 0.204478 0.860599
vt 0.244974 0.864047
vt 0.244974 0.830134
vt 0.248625 0.830134
vt 0.248625 0.864047
vt 0.473528 -0.074833
vt 0.197082 -0.074833
vt 0.197082 -0.381915
vt 0.473528 -0.381915
vt 0.756126 -0.381915
vt 0.756126 -0.074833
vt 0.479680 -0.074833
vt 0.479680 -0.381915
vt 0.879030 0.391533
vt 0.885616 0.391547
vt 0.885491 0.470298
vt 0.879030 0.470245
vt 0.885246 0.390216
vt 0.879030 0.390237
vt 0.886749 0.471251
vt 0.886785 0.390811
vt 0.885353 0.471560
vt 0.879030 0.471540
vt 0.886417 0.390090
vt 0.884880 0.389700
vt 0.886571 0.389504
vt 0.852432 0.392334
vt 0.858822 0.392334
vt 0.858996 0.470841
vt 0.852432 0.470845
vt 0.858822 0.391041
vt 0.852432 0.391041
vt 0.860115 0.391223
vt 0.860166 0.471721
vt 0.858728 0.472150
vt 0.852432 0.472138
vt 0.041588 0.824921
vt 0.041588 0.896538
vt 0.039198 0.860938
vt 0.039182 0.860521
vt 0.039182 0.824921
vt 0.038887 0.860730
vt 0.035603 0.896538
vt 0.035603 0.860730
vt 0.018892 0.825167
vt 0.018892 0.896783
vt 0.016485 0.896783
vt 0.016485 0.861184
vt 0.016501 0.860767
vt 0.016190 0.860975
vt 0.012906 0.860975
vt 0.012906 0.825167
vt 0.242244 0.830345
vt 0.242244 0.858899
vt 0.240051 0.858899
vt 0.240051 0.830345
vt 0.197984 0.828108
vt 0.197984 0.856663
vt 0.195791 0.856663
vt 0.195791 0.828108
vt 0.189254 0.827560
vt 0.189254 0.856114
vt 0.186989 0.856114
vt 0.186989 0.827560
vt 0.237324 0.829875
vt 0.237324 0.858429
vt 0.235060 0.858429
vt 0.235060 0.829875
vt 0.755429 0.375136
vt 0.755429 0.375242
vt 0.755448 0.375751
vt 0.755068 0.375497
vt 0.342261 0.174718
vt 0.341900 0.174357
vt 0.342280 0.174102
vt 0.342261 0.174612
vt 0.775823 0.392352
vt 0.775823 0.426265
vt 0.772172 0.426265
vt 0.772172 0.392352
vt 0.758972 0.392343
vt 0.758972 0.426256
vt 0.755321 0.426256
vt 0.755321 0.392343
vt 0.067860 0.990844
vt 0.067860 0.915158
vt 0.071145 0.915158
vt 0.071145 0.990844
vt 0.796388 0.362675
vt 0.790232 0.362671
vt 0.790013 0.279711
vt 0.796388 0.279711
vt 0.790097 0.363967
vt 0.796388 0.363964
vt 0.788788 0.363838
vt 0.788724 0.278685
vt 0.790013 0.278421
vt 0.796388 0.278421
vt 0.788991 0.364325
vt 0.772872 0.362423
vt 0.766888 0.362439
vt 0.767077 0.279774
vt 0.772872 0.279814
vt 0.766619 0.363726
vt 0.772872 0.363707
vt 0.765347 0.363648
vt 0.765402 0.278576
vt 0.766714 0.278492
vt 0.772872 0.278531
vt 0.765512 0.364103
vt 0.042303 0.990463
vt 0.042303 0.914776
vt 0.044709 0.914776
vt 0.044709 0.990463
vt 0.087318 0.991367
vt 0.087318 0.915681
vt 0.093304 0.915681
vt 0.093304 0.991367
vt 0.056137 0.895924
vt 0.056137 0.826861
vt 0.058330 0.826861
vt 0.058330 0.895924
vt 0.152531 0.895387
vt 0.152531 0.826323
vt 0.154723 0.826323
vt 0.154723 0.895387
vt 0.046413 0.895453
vt 0.046413 0.826391
vt 0.048677 0.826391
vt 0.048677 0.895453
vt 0.051040 0.895688
vt 0.051040 0.826626
vt 0.053304 0.826626
vt 0.053304 0.895688
vt 0.895080 0.549092
vt 0.895080 0.809810
vt 0.855852 0.809810
vt 0.855852 0.549092
vt 0.801087 0.809810
vt 0.801087 0.549092
vt 0.840315 0.549092
vt 0.840315 0.809810
vt 0.539427 0.806963
vt 0.278710 0.806963
vt 0.278710 0.444380
vt 0.539427 0.444380
vt 0.020795 0.914099
vt 0.020795 0.990053
vt 0.017144 0.990053
vt 0.017144 0.914099
vt 0.025530 0.990051
vt 0.025530 0.914099
vt 0.029181 0.914099
vt 0.029181 0.990051
vt 0.479814 -0.418920
vt 0.292723 -0.418920
vt 0.292723 -0.695366
vt 0.479814 -0.695366
vt 0.061404 0.915835
vt 0.061404 0.991521
vt 0.058119 0.991521
vt 0.058119 0.915835
vt 0.751761 0.279196
vt 0.757917 0.279200
vt 0.758135 0.362160
vt 0.751761 0.362160
vt 0.758052 0.277905
vt 0.751761 0.277907
vt 0.759360 0.278033
vt 0.759425 0.363187
vt 0.758135 0.363450
vt 0.751761 0.363450
vt 0.759158 0.277546
vt 0.777800 0.279924
vt 0.783785 0.279907
vt 0.783596 0.362573
vt 0.777800 0.362533
vt 0.784053 0.278621
vt 0.777800 0.278640
vt 0.785325 0.278698
vt 0.785270 0.363771
vt 0.783958 0.363855
vt 0.777800 0.363816
vt 0.785160 0.278243
vt 0.036323 0.914776
vt 0.036323 0.990462
vt 0.033917 0.990462
vt 0.033917 0.914776
vt 0.082736 0.915342
vt 0.082736 0.991028
vt 0.076751 0.991028
vt 0.076751 0.915342
vt 0.063427 0.827331
vt 0.063427 0.896395
vt 0.061235 0.896395
vt 0.061235 0.827331
vt 0.137873 0.826451
vt 0.137873 0.895515
vt 0.135680 0.895515
vt 0.135680 0.826451
vt 0.104242 0.826451
vt 0.104242 0.895514
vt 0.101978 0.895514
vt 0.101978 0.826451
vt 0.121093 0.826451
vt 0.121093 0.895514
vt 0.118829 0.895514
vt 0.118829 0.826451
vt 0.965383 0.265600
vt 0.965383 0.004883
vt 0.985838 0.004883
vt 0.985838 0.265600
vt 0.994264 0.276236
vt 0.994264 0.536952
vt 0.973808 0.536952
vt 0.973808 0.276236
vt 0.007786 0.989376
vt 0.007786 0.913422
vt 0.011437 0.913422
vt 0.011437 0.989376
vt 0.053045 0.914819
vt 0.053045 0.990772
vt 0.049394 0.990772
vt 0.049394 0.914819
vt 0.004883 0.444380
vt 0.265600 0.444380
vt 0.265600 0.806963
vt 0.004883 0.806963
vt 0.099497 -0.695366
vt 0.286588 -0.695366
vt 0.286588 -0.418920
vt 0.099497 -0.418921
vt 0.973808 0.354451
vt 0.384028 0.314921
vt 0.762277 -0.238560
vt 0.479680 -0.232147
vt 0.891235 -0.238561
vt 0.891235 -0.175563
vt 0.479680 -0.295145
vt 0.762278 -0.175563
vt 0.762277 -0.238560
vt 0.897332 -0.238561
vt 0.897469 -0.175563
vt 0.762278 -0.175563
vt 0.891235 -0.238561
vt 0.891235 -0.175563
vt 0.762278 -0.175563
vt 0.762277 -0.238560
vt 0.891235 -0.238561
vt 0.891235 -0.175563
vt 0.759971 0.711686
vt 0.759962 0.795114
vt 0.679372 0.795105
vt 0.551053 0.711662
vt 0.679351 0.972387
vt 0.551022 0.972372
vt 0.776355 0.801987
vt 0.776355 0.994098
vt 0.703841 0.994098
vt 0.703841 0.801987
vt 0.889179 0.196554
vt 0.889179 0.123592
vt 0.921974 0.123592
vt 0.921974 0.196554
vt 0.850873 0.122298
vt 0.887380 0.122298
vt 0.887380 0.198880
vt 0.850873 0.198880
vt 0.466813 0.838583
vt 0.539775 0.838583
vt 0.539775 0.991635
vt 0.466813 0.991635
vt 0.466813 0.816259
vt 0.539775 0.816259
vt 0.791468 0.714576
vt 0.791468 0.795165
vt 0.766811 0.795165
vt 0.766811 0.714576
vt 0.267776 0.843103
vt 0.424332 0.843101
vt 0.456323 0.992389
vt 0.267778 0.992391
vt 0.267776 0.821328
vt 0.424332 0.821327
vt 0.456321 0.843101
vt 0.832165 0.842156
vt 0.991682 0.842158
vt 0.991680 0.994269
vt 0.799569 0.994268
vt 0.832165 0.819970
vt 0.991682 0.819972
vt 0.799571 0.842156
vn -1.000000 0.000000 0.000000
vn -1.000000 0.000000 0.000000
vn -0.999999 -0.000805 -0.001063
vn -1.000000 0.000796 -0.000636
vn -1.000000 0.000000 0.000000
vn -1.000000 0.000000 0.000000
vn -0.999997 -0.002654 0.000006
vn -1.000000 0.000000 0.000000
vn -1.000000 0.000000 0.000000
vn -1.000000 0.000000 0.000000
vn -1.000000 0.000000 0.000000
vn -1.000000 -0.000000 0.000000
vn -1.000000 -0.000000 0.000000
vn -0.999998 0.001856 0.000009
vn 0.000000 0.000000 -1.000000
vn 0.000000 0.000000 -1.000000
vn 0.000000 0.000000 -1.000000
vn 0.000000 0.000000 -1.000000
vn -0.000052 0.999980 0.006356
vn -0.106826 0.994265 0.005114
vn -0.110749 0.993832 -0.005700
vn -0.000040 0.999979 -0.006496
vn -0.000023 0.006188 -0.999981
vn -0.085767 0.005046 -0.996303
vn -0.085267 -0.004867 -0.996346
vn 0.000000 -0.006447 -0.999979
vn -0.000000 -0.999978 -0.006622
vn -0.102088 -0.994757 -0.006016
vn -0.099271 -0.995047 0.005244
vn -0.000028 -0.999979 0.006544
vn -0.000034 -0.006483 0.999979
vn -0.047035 -0.005732 0.998877
vn -0.046287 0.006091 0.998910
vn -0.000068 0.006250 0.999981
vn -0.002380 0.922406 -0.386214
vn -0.002380 0.922406 -0.386214
vn -0.001400 0.375964 -0.926633
vn -0.001400 0.375964 -0.926633
vn -0.913171 0.407568 -0.002796
vn -0.912803 0.408397 0.001718
vn -0.478204 0.878208 -0.008489
vn -0.476902 0.878932 0.006504
vn -0.343462 0.000249 -0.939166
vn -0.343462 0.000249 -0.939166
vn -0.843468 0.004488 -0.537161
vn -0.843742 -0.001238 -0.536748
vn 0.000000 -0.382672 -0.923884
vn 0.000000 -0.382672 -0.923884
vn 0.000000 -0.923869 -0.382708
vn 0.000000 -0.923869 -0.382708
vn -0.435117 -0.900304 -0.011201
vn -0.434594 -0.900599 0.006999
vn -0.893762 -0.448519 -0.004595
vn -0.893651 -0.448762 0.000284
vn -0.001611 -0.927172 0.374633
vn -0.001611 -0.927172 0.374633
vn -0.165627 -0.483110 0.859751
vn -0.002015 -0.378687 0.925523
vn -0.164504 0.000622 0.986376
vn -0.164504 0.000622 0.986376
vn -0.595641 0.002768 0.803246
vn -0.595641 0.002768 0.803246
vn -0.595641 0.002768 0.803246
vn -0.595641 0.002768 0.803246
vn -0.088214 0.416863 0.904679
vn -0.004128 0.376780 0.926294
vn -0.061233 0.927920 0.367716
vn -0.003019 0.930566 0.366112
vn -1.000000 -0.000001 0.000000
vn -1.000000 -0.000001 0.000000
vn -1.000000 0.000000 0.000000
vn -1.000000 -0.000000 0.000000
vn -1.000000 0.000001 0.000000
vn -1.000000 -0.000000 0.000000
vn -1.000000 -0.000011 0.000000
vn -1.000000 0.000001 0.000000
vn -1.000000 0.000001 0.000000
vn -1.000000 0.000001 0.000000
vn -1.000000 0.000000 0.000000
vn -1.000000 0.000000 0.000000
vn -1.000000 -0.000001 0.000000
vn -1.000000 0.000000 0.000000
vn -1.000000 -0.000014 0.000000
vn -1.000000 -0.000001 0.000000
vn -0.482080 0.475610 -0.735795
vn -0.482080 0.475610 -0.735795
vn -0.513305 0.610575 -0.603088
vn -0.516268 0.628293 -0.581992
vn -0.944021 0.257768 -0.205863
vn -0.533643 -0.599977 -0.596031
vn -0.533773 -0.596630 -0.599266
vn -0.528898 -0.446677 -0.721628
vn -0.528899 -0.446677 -0.721628
vn -0.947557 -0.225984 -0.225981
vn -0.458869 -0.514871 0.724119
vn -0.511327 -0.669915 0.538292
vn -0.943244 -0.286325 0.168251
vn -0.943244 -0.286325 0.168251
vn -0.485500 0.805842 0.338980
vn -0.375956 0.526477 0.762547
vn -0.375956 0.526477 0.762547
vn -0.928927 0.330488 0.166953
vn -0.928927 0.330488 0.166953
vn -0.707107 -0.000000 -0.707106
vn -0.707107 -0.000000 -0.707106
vn -0.707107 -0.000000 -0.707106
vn -0.707107 -0.000000 -0.707106
vn -0.707122 0.707091 0.000000
vn -0.707122 0.707091 0.000000
vn -0.707122 0.707091 0.000000
vn -0.707122 0.707091 0.000000
vn -0.707096 -0.707118 -0.000001
vn -0.707096 -0.707118 -0.000001
vn -0.707096 -0.707118 -0.000001
vn -0.707096 -0.707118 -0.000001
vn -0.707099 0.000000 0.707114
vn -0.707099 0.000000 0.707114
vn -0.707099 0.000000 0.707114
vn -0.707099 0.000000 0.707114
vn -0.707106 0.000000 -0.707108
vn -0.707106 0.000000 -0.707108
vn -0.707106 0.000000 -0.707108
vn -0.707106 0.000000 -0.707108
vn -0.707106 0.707108 -0.000001
vn -0.707106 0.707108 -0.000001
vn -0.707106 0.707108 -0.000001
vn -0.707106 0.707108 -0.000001
vn -0.707111 -0.000000 -0.707102
vn -0.707111 -0.000000 -0.707102
vn -0.707111 -0.000000 -0.707102
vn -0.707111 -0.000000 -0.707102
vn -0.707092 -0.707121 -0.000003
vn -0.707092 -0.707121 -0.000003
vn -0.707092 -0.707121 -0.000003
vn -0.707092 -0.707121 -0.000003
vn -0.707111 0.000000 0.707103
vn -0.707111 0.000000 0.707103
vn -0.707111 0.000000 0.707103
vn -0.707111 0.000000 0.707103
vn -0.707102 0.000000 -0.707112
vn -0.707102 0.000000 -0.707112
vn -0.707102 0.000000 -0.707112
vn -0.707102 0.000000 -0.707112
vn -0.707105 -0.707108 -0.000001
vn -0.707105 -0.707108 -0.000001
vn -0.707105 -0.707108 -0.000001
vn -0.707105 -0.707108 -0.000001
vn -0.707105 0.707108 0.000001
vn -0.707106 0.707108 0.000001
vn -0.707105 0.707108 0.000001
vn -0.707105 0.707108 0.000001
vn -0.707111 -0.000000 0.707103
vn -0.707111 -0.000000 0.707103
vn -0.707111 -0.000000 0.707103
vn -0.707111 -0.000000 0.707103
vn 0.000000 -0.000000 -1.000000
vn 0.000000 -0.000000 -1.000000
vn 0.000000 -0.000000 -1.000000
vn 0.000000 -0.000000 -1.000000
vn 0.000000 -1.000000 -0.000001
vn 0.000000 -1.000000 -0.000001
vn 0.000000 -1.000000 -0.000001
vn 0.000000 -1.000000 -0.000001
vn 0.000000 -1.000000 -0.000001
vn 0.000001 1.000000 0.000003
vn 0.000021 1.000000 -0.000000
vn 0.000021 1.000000 -0.000000
vn 0.000021 1.000000 -0.000000
vn 0.000011 1.000000 0.000001
vn 0.000000 -0.000000 1.000000
vn 0.000000 -0.000000 1.000000
vn 0.000000 -0.000000 1.000000
vn 0.000000 -0.000000 1.000000
vn -0.000000 1.000000 0.000003
vn -0.000000 1.000000 0.000003
vn -0.000000 1.000000 0.000003
vn -1.000000 0.000001 0.000000
vn -1.000000 -0.000001 0.000000
vn -1.000000 -0.000001 0.000000
vn -1.000000 0.000002 0.000000
vn -1.000000 -0.000003 0.000000
vn -1.000000 -0.000002 0.000000
vn -1.000000 -0.000001 0.000000
vn -1.000000 0.000003 0.000000
vn -1.000000 0.000002 0.000000
vn -1.000000 0.000000 0.000000
vn -1.000000 0.000000 0.000000
vn -1.000000 0.000000 0.000000
vn -1.000000 0.000000 0.000000
vn -1.000000 0.000000 0.000000
vn -1.000000 0.000000 0.000000
vn -1.000000 0.000000 0.000000
vn -1.000000 0.000000 0.000000
vn 0.000000 -0.000000 -1.000000
vn 0.000000 -0.000000 -1.000000
vn 0.000000 -0.000000 -1.000000
vn 0.000000 -0.000000 -1.000000
vn 0.000000 -1.000000 -0.000005
vn 0.000000 -1.000000 -0.000005
vn 0.000000 -1.000000 -0.000005
vn 0.000000 -1.000000 -0.000005
vn 0.000000 0.000000 1.000000
vn 0.000000 0.000000 1.000000
vn 0.000000 0.000000 1.000000
vn 0.000000 0.000000 1.000000
vn 0.000000 1.000000 -0.000001
vn 0.000000 1.000000 -0.000001
vn 0.000000 1.000000 -0.000001
vn 0.000000 1.000000 -0.000001
vn 0.000000 0.000000 -1.000000
vn 0.000000 0.000000 -1.000000
vn 0.000000 0.000000 -1.000000
vn 0.000000 0.000000 -1.000000
vn 0.000000 -1.000000 -0.000001
vn 0.000000 -1.000000 -0.000001
vn 0.000000 -1.000000 -0.000001
vn 0.000000 -1.000000 -0.000001
vn 0.000000 -0.000000 1.000000
vn 0.000000 -0.000000 1.000000
vn 0.000000 -0.000000 1.000000
vn 0.000000 -0.000000 1.000000
vn 0.000000 1.000000 0.000001
vn 0.000000 1.000000 0.000001
vn 0.000000 1.000000 0.000001
vn 0.000000 1.000000 0.000001
vn -1.000000 0.000001 0.000000
vn -1.000000 -0.000001 0.000000
vn -1.000000 0.000001 0.000000
vn -1.000000 -0.000001 0.000000
vn 0.000000 -1.000000 -0.000001
vn 0.000000 -1.000000 -0.000001
vn 0.000000 -1.000000 -0.000001
vn -1.000000 0.000005 0.000000
vn -0.311798 -0.841618 -0.440978
vn -0.311798 -0.841618 -0.440978
vn -0.311798 -0.841618 -0.440978
vn -0.311798 -0.841618 -0.440978
vn -0.312022 0.841549 -0.440951
vn -0.312022 0.841549 -0.440951
vn -0.312022 0.841549 -0.440951
vn -0.312022 0.841549 -0.440951
vn 0.000000 0.000000 -1.000000
vn 0.000000 0.000000 -1.000000
vn 0.000000 0.000000 -1.000000
vn 0.000000 0.000000 -1.000000
vn -1.000000 0.000000 0.000000
vn -1.000000 0.000000 0.000000
vn -1.000000 0.000000 0.000000
vn -1.000000 0.000000 0.000000
vn 0.000000 -0.000000 1.000000
vn 0.000000 -0.000000 1.000000
vn 0.000000 -0.000000 1.000000
vn 0.000000 -0.000000 1.000000
vn 0.000000 -1.000000 -0.000000
vn 0.000000 -1.000000 -0.000000
vn 0.000000 -1.000000 -0.000000
vn 0.000000 -1.000000 -0.000000
vn 0.000000 -1.000000 -0.000000
vn 0.000000 -1.000000 -0.000000
vn 0.000000 -1.000000 -0.000000
vn 0.000000 -1.000000 -0.000000
vn 0.000000 -1.000000 0.000000
vn 0.000000 -1.000000 0.000000
vn 0.000000 -1.000000 0.000000
vn 0.000000 -1.000000 0.000000
vn 0.000000 1.000000 0.000000
vn 0.000000 1.000000 0.000000
vn 0.000000 1.000000 0.000000
vn 0.000000 1.000000 0.000000
vn 0.000000 1.000000 -0.000000
vn 0.000000 1.000000 -0.000000
vn 0.000000 1.000000 -0.000000
vn 0.000000 1.000000 -0.000000
vn 0.000000 1.000000 -0.000000
vn 0.000000 1.000000 0.000000
vn 0.000000 1.000000 0.000000
vn 0.000000 1.000000 0.000000
vn 0.000000 1.000000 0.000000
vn 0.000000 0.000000 -1.000000
vn 0.000000 0.000000 -1.000000
vn 0.000000 0.000000 -1.000000
vn 0.000000 0.000000 -1.000000
vn -1.000000 0.000000 0.000000
vn -1.000000 0.000000 0.000000
vn -1.000000 0.000000 0.000000
vn -1.000000 0.000000 0.000000
vn 0.000000 -1.000000 0.000000
vn 0.000000 -1.000000 0.000000
vn 0.000000 -1.000000 0.000000
vn 0.000000 -1.000000 0.000000
vn -0.000000 1.000000 0.000000
vn -0.000000 1.000000 0.000000
vn -0.000000 1.000000 -0.000000
vn -0.000000 1.000000 0.000000
vn 0.000000 1.000000 -0.000000
vn 0.000000 1.000000 -0.000000
vn 0.000000 -1.000000 0.000000
vn 0.000000 -1.000000 0.000000
vn 1.000000 0.000000 0.000000
vn 1.000000 0.000000 0.000000
vn 1.000000 0.000000 0.000000
vn 1.000000 0.000000 0.000000
vn 1.000000 0.000005 0.000000
vn 1.000000 0.000005 0.000000
vn 1.000000 0.000005 0.000000
vn 1.000000 0.000005 0.000000
vn 1.000000 0.000000 0.000000
vn 1.000000 0.000000 0.000000
vn 1.000000 0.000000 0.000000
vn 1.000000 0.000000 0.000000
vn 1.000000 0.000001 0.000000
vn 1.000000 0.000001 0.000000
vn 1.000000 0.000001 0.000000
vn 1.000000 0.000001 0.000000
vn 1.000000 0.000000 0.000000
vn 1.000000 0.000000 0.000000
vn 1.000000 0.000000 0.000000
vn 1.000000 0.000000 0.000000
vn 1.000000 -0.000004 0.000000
vn 1.000000 -0.000004 0.000000
vn 1.000000 -0.000004 0.000000
vn 1.000000 -0.000004 0.000000
vn 1.000000 0.000000 0.000000
vn 1.000000 0.000000 0.000000
vn 1.000000 0.000000 0.000000
vn 1.000000 0.000000 0.000000
vn 1.000000 0.000004 0.000000
vn 1.000000 0.000004 0.000000
vn 1.000000 0.000004 0.000000
vn 1.000000 0.000004 0.000000
vn 0.000007 0.000000 1.000000
vn 0.000007 0.000000 1.000000
vn 0.000007 0.000000 1.000000
vn 0.000007 0.000000 1.000000
vn 0.000000 -0.000000 -1.000000
vn 0.000000 -0.000000 -1.000000
vn 0.000000 -0.000000 -1.000000
vn 0.000000 -0.000000 -1.000000
vn 0.000003 -1.000000 -0.000001
vn 0.000003 -1.000000 -0.000001
vn 0.000003 -1.000000 -0.000001
vn 0.000003 -1.000000 -0.000001
vn 0.000002 1.000000 -0.000000
vn 0.000002 1.000000 -0.000000
vn 0.000002 1.000000 -0.000000
vn 0.000002 1.000000 -0.000000
vn 1.000000 0.000000 -0.000000
vn 1.000000 0.000000 -0.000000
vn 1.000000 0.000000 -0.000000
vn 1.000000 0.000000 -0.000000
vn 1.000000 -0.000001 0.000000
vn 1.000000 -0.000001 0.000000
vn 1.000000 -0.000001 0.000000
vn 1.000000 0.000000 -0.000000
vn 1.000000 0.000000 -0.000000
vn 1.000000 0.000000 -0.000000
vn 1.000000 0.000000 -0.000000
vn 1.000000 0.000000 0.000000
vn 1.000000 0.000000 0.000000
vn 1.000000 0.000000 0.000000
vn 1.000000 0.000000 -0.000000
vn 1.000000 0.000000 -0.000000
vn 1.000000 0.000000 -0.000000
vn 1.000000 0.000000 -0.000000
vn 1.000000 0.000000 0.000000
vn 1.000000 0.000000 0.000000
vn 1.000000 0.000000 0.000000
vn 1.000000 0.000000 0.000000
vn 0.000000 0.000000 1.000000
vn 0.000000 0.000000 1.000000
vn 0.000000 0.000000 1.000000
vn 0.000000 0.000000 1.000000
vn 0.000000 1.000000 -0.000000
vn 0.000000 1.000000 -0.000000
vn 0.000000 1.000000 -0.000000
vn 0.000000 1.000000 -0.000000
vn 0.000000 -1.000000 0.000000
vn 0.000000 -1.000000 0.000000
vn 0.000000 -1.000000 0.000000
vn 1.000000 0.000000 0.000000
vn 1.000000 0.000000 0.000000
vn 1.000000 -0.000005 0.000097
vn 1.000000 -0.000006 0.000049
vn 1.000000 -0.000000 0.000000
vn 1.000000 -0.000000 0.000000
vn 1.000000 -0.000012 -0.000001
vn 1.000000 0.000000 0.000000
vn 1.000000 0.000000 0.000000
vn 1.000000 0.000000 0.000000
vn 1.000000 0.000000 0.000000
vn 1.000000 0.000000 0.000000
vn 1.000000 0.000000 0.000000
vn 1.000000 -0.000008 0.000000
vn 0.000000 0.000000 1.000000
vn 0.000000 0.000000 1.000000
vn 0.000000 0.000000 1.000000
vn 0.000000 0.000000 1.000000
vn 0.000052 0.999980 -0.006356
vn 0.106826 0.994265 -0.005114
vn 0.110749 0.993832 0.005700
vn 0.000040 0.999979 0.006496
vn 0.000023 0.006188 0.999981
vn 0.085768 0.005046 0.996302
vn 0.085268 -0.004867 0.996346
vn 0.000000 -0.006447 0.999979
vn 0.000000 -0.999978 0.006622
vn 0.102088 -0.994757 0.006016
vn 0.099271 -0.995047 -0.005244
vn 0.000028 -0.999979 -0.006544
vn 0.000035 -0.006483 -0.999979
vn 0.047035 -0.005732 -0.998877
vn 0.046287 0.006091 -0.998910
vn 0.000068 0.006250 -0.999981
vn 0.002380 0.922406 0.386214
vn 0.002380 0.922406 0.386214
vn 0.001400 0.375962 0.926634
vn 0.001400 0.375962 0.926634
vn 0.999992 -0.003913 0.000221
vn 0.999994 -0.003402 0.000012
vn 0.478200 0.878210 0.008489
vn 0.476898 0.878934 -0.006504
vn 0.343466 0.000249 0.939165
vn 0.343466 0.000249 0.939165
vn 0.998840 0.000924 0.048134
vn 0.998825 -0.001043 0.048460
vn 0.000000 -0.382672 0.923884
vn 0.000000 -0.382672 0.923884
vn 0.000000 -0.923870 0.382706
vn 0.000000 -0.923870 0.382706
vn 0.435120 -0.900303 0.011201
vn 0.434598 -0.900597 -0.006999
vn 0.999999 -0.001347 0.000413
vn 0.999997 -0.002272 -0.000280
vn 0.001611 -0.927172 -0.374633
vn 0.001611 -0.927172 -0.374633
vn 0.165627 -0.483112 -0.859750
vn 0.002015 -0.378687 -0.925523
vn 0.164504 0.000622 -0.986376
vn 0.164504 0.000622 -0.986376
vn 0.971072 0.000576 -0.238785
vn 0.971072 0.000576 -0.238785
vn 0.971072 0.000576 -0.238785
vn 0.971072 0.000576 -0.238785
vn 0.088214 0.416862 -0.904679
vn 0.004129 0.376781 -0.926293
vn 0.061233 0.927920 -0.367716
vn 0.003018 0.930566 -0.366112
vn 1.000000 -0.000001 0.000000
vn 1.000000 -0.000001 0.000000
vn 1.000000 0.000006 0.000000
vn 1.000000 0.000000 0.000000
vn 1.000000 0.000001 0.000000
vn 1.000000 -0.000000 0.000000
vn 1.000000 -0.000006 0.000000
vn 1.000000 0.000001 0.000000
vn 1.000000 0.000001 0.000000
vn 1.000000 0.000001 0.000000
vn 1.000000 -0.000006 0.000000
vn 1.000000 0.000000 0.000000
vn 1.000000 -0.000001 0.000000
vn 1.000000 0.000000 0.000000
vn 1.000000 0.000006 0.000000
vn 1.000000 -0.000001 0.000000
vn 0.482085 0.475605 0.735795
vn 0.482085 0.475605 0.735795
vn 0.513308 0.610574 0.603088
vn 0.516271 0.628293 0.581991
vn 0.994514 0.097851 0.036983
vn 0.533645 -0.599978 0.596028
vn 0.533775 -0.596630 0.599264
vn 0.528902 -0.446675 0.721626
vn 0.528902 -0.446675 0.721626
vn 0.996047 -0.062814 0.062806
vn 0.458864 -0.514879 -0.724116
vn 0.511325 -0.669920 -0.538288
vn 0.992704 -0.120569 0.001445
vn 0.992704 -0.120569 0.001445
vn 0.485500 0.805842 -0.338980
vn 0.375958 0.526472 -0.762551
vn 0.375958 0.526472 -0.762551
vn 0.988947 0.146879 0.020275
vn 0.988947 0.146879 0.020275
vn 0.707115 0.000000 0.707098
vn 0.707115 0.000000 0.707098
vn 0.707115 0.000000 0.707098
vn 0.707115 0.000000 0.707098
vn 0.707089 0.707125 -0.000000
vn 0.707089 0.707125 -0.000000
vn 0.707089 0.707125 -0.000000
vn 0.707089 0.707125 -0.000000
vn 0.707062 -0.707152 0.000001
vn 0.707062 -0.707151 0.000001
vn 0.707062 -0.707152 0.000001
vn 0.707062 -0.707152 0.000001
vn 0.707099 0.000000 -0.707114
vn 0.707099 0.000000 -0.707114
vn 0.707099 0.000000 -0.707114
vn 0.707099 0.000000 -0.707114
vn 0.707114 0.000000 0.707100
vn 0.707114 0.000000 0.707100
vn 0.707114 0.000000 0.707100
vn 0.707114 0.000000 0.707100
vn 0.707085 0.707129 0.000001
vn 0.707085 0.707129 0.000001
vn 0.707085 0.707129 0.000001
vn 0.707085 0.707129 0.000001
vn 0.707103 -0.000000 0.707111
vn 0.707103 -0.000000 0.707111
vn 0.707103 -0.000000 0.707111
vn 0.707103 -0.000000 0.707111
vn 0.707071 -0.707142 0.000003
vn 0.707071 -0.707142 0.000003
vn 0.707071 -0.707142 0.000003
vn 0.707071 -0.707142 0.000003
vn 0.707111 0.000000 -0.707103
vn 0.707111 0.000000 -0.707103
vn 0.707111 0.000000 -0.707103
vn 0.707111 0.000000 -0.707103
vn 0.707093 0.000000 0.707121
vn 0.707093 0.000000 0.707121
vn 0.707093 0.000000 0.707121
vn 0.707093 0.000000 0.707121
vn 0.707105 -0.707108 0.000001
vn 0.707105 -0.707108 0.000001
vn 0.707105 -0.707108 0.000001
vn 0.707105 -0.707108 0.000001
vn 0.707105 0.707108 -0.000001
vn 0.707105 0.707108 -0.000001
vn 0.707105 0.707108 -0.000001
vn 0.707105 0.707108 -0.000001
vn 0.707111 -0.000000 -0.707103
vn 0.707111 -0.000000 -0.707103
vn 0.707111 -0.000000 -0.707103
vn 0.707111 -0.000000 -0.707103
vn 0.000000 -0.000000 1.000000
vn 0.000000 -0.000000 1.000000
vn 0.000000 -0.000000 1.000000
vn 0.000000 -0.000000 1.000000
vn -0.000000 -1.000000 0.000001
vn -0.000000 -1.000000 0.000001
vn -0.000000 -1.000000 0.000001
vn -0.000000 -1.000000 0.000001
vn -0.000000 -1.000000 0.000001
vn -0.000001 1.000000 -0.000003
vn -0.000021 1.000000 0.000000
vn -0.000021 1.000000 0.000000
vn -0.000021 1.000000 0.000000
vn -0.000011 1.000000 -0.000001
vn 0.000000 -0.000000 -1.000000
vn 0.000000 -0.000000 -1.000000
vn 0.000000 -0.000000 -1.000000
vn 0.000000 -0.000000 -1.000000
vn 0.000000 1.000000 -0.000003
vn 0.000000 1.000000 -0.000003
vn 0.000000 1.000000 -0.000003
vn 1.000000 0.000000 0.000000
vn 1.000000 -0.000001 0.000000
vn 1.000000 -0.000001 0.000000
vn 1.000000 0.000000 0.000000
vn 1.000000 -0.000003 0.000000
vn 1.000000 -0.000002 0.000000
vn 1.000000 -0.000001 0.000000
vn 1.000000 0.000000 0.000000
vn 1.000000 0.000000 0.000000
vn 1.000000 0.000000 0.000000
vn 1.000000 0.000000 0.000000
vn 1.000000 0.000000 0.000000
vn 1.000000 0.000000 0.000000
vn 1.000000 0.000000 0.000000
vn 1.000000 0.000000 0.000000
vn 1.000000 0.000000 0.000000
vn 1.000000 0.000000 0.000000
vn 0.000000 -0.000000 1.000000
vn 0.000000 -0.000000 1.000000
vn 0.000000 -0.000000 1.000000
vn 0.000000 -0.000000 1.000000
vn 0.000000 -1.000000 0.000005
vn 0.000000 -1.000000 0.000005
vn 0.000000 -1.000000 0.000005
vn 0.000000 -1.000000 0.000005
vn 0.000000 0.000000 -1.000000
vn 0.000000 0.000000 -1.000000
vn 0.000000 0.000000 -1.000000
vn 0.000000 0.000000 -1.000000
vn 0.000000 1.000000 0.000001
vn 0.000000 1.000000 0.000001
vn 0.000000 1.000000 0.000001
vn 0.000000 1.000000 0.000001
vn 0.000000 0.000000 1.000000
vn 0.000000 0.000000 1.000000
vn 0.000000 0.000000 1.000000
vn 0.000000 0.000000 1.000000
vn 0.000000 -1.000000 0.000001
vn 0.000000 -1.000000 0.000001
vn 0.000000 -1.000000 0.000001
vn 0.000000 -1.000000 0.000001
vn 0.000000 -0.000000 -1.000000
vn 0.000000 -0.000000 -1.000000
vn 0.000000 -0.000000 -1.000000
vn 0.000000 -0.000000 -1.000000
vn 0.000000 1.000000 -0.000001
vn 0.000000 1.000000 -0.000001
vn 0.000000 1.000000 -0.000001
vn 0.000000 1.000000 -0.000001
vn 1.000000 0.000001 0.000000
vn 1.000000 -0.000001 0.000000
vn 1.000000 0.000001 0.000000
vn 1.000000 -0.000001 0.000000
vn -0.000000 -1.000000 0.000001
vn -0.000000 -1.000000 0.000001
vn -0.000000 -1.000000 0.000001
vn 1.000000 0.000000 0.000000
vn 0.311818 -0.841612 0.440975
vn 0.311818 -0.841612 0.440975
vn 0.311817 -0.841612 0.440975
vn 0.311818 -0.841612 0.440975
vn 0.312016 0.841555 0.440943
vn 0.312016 0.841555 0.440943
vn 0.312016 0.841555 0.440943
vn 0.312016 0.841555 0.440943
vn 0.000000 0.000000 1.000000
vn 0.000000 0.000000 1.000000
vn 0.000000 0.000000 1.000000
vn 0.000000 0.000000 1.000000
vn 1.000000 0.000000 0.000000
vn 1.000000 0.000000 0.000000
vn 1.000000 0.000000 0.000000
vn 1.000000 0.000000 0.000000
vn 0.000000 -0.000000 -1.000000
vn 0.000000 -0.000000 -1.000000
vn 0.000000 -0.000000 -1.000000
vn 1.000000 0.000000 -0.000000
vn 1.000000 0.000000 -0.000000
vn 1.000000 0.000000 -0.000000
vn 1.000000 0.000000 -0.000000
vn -1.000000 0.000000 0.000000
vn -1.000000 0.000000 0.000000
vn -1.000000 0.000000 0.000000
vn -1.000000 0.000000 0.000000
vn -1.000000 0.000002 0.000000
vn -1.000000 0.000002 0.000000
vn -1.000000 0.000002 0.000000
vn -1.000000 0.000002 0.000000
vn -1.000000 0.000000 0.000000
vn -1.000000 0.000000 0.000000
vn -1.000000 0.000000 0.000000
vn -1.000000 0.000000 0.000000
vn -1.000000 -0.000004 0.000000
vn -1.000000 -0.000004 0.000000
vn -1.000000 -0.000004 0.000000
vn -1.000000 -0.000004 0.000000
vn -1.000000 -0.000000 0.000000
vn -1.000000 -0.000000 0.000000
vn -1.000000 -0.000000 0.000000
vn -1.000000 -0.000000 0.000000
vn -1.000000 0.000002 0.000000
vn -1.000000 0.000002 0.000000
vn -1.000000 0.000002 0.000000
vn -1.000000 0.000002 0.000000
vn -1.000000 0.000000 0.000000
vn -1.000000 0.000000 0.000000
vn -1.000000 0.000000 0.000000
vn -1.000000 0.000000 0.000000
vn -1.000000 -0.000004 0.000000
vn -1.000000 -0.000004 0.000000
vn -1.000000 -0.000004 0.000000
vn -1.000000 -0.000004 0.000000
vn -0.000006 0.000000 -1.000000
vn -0.000006 0.000000 -1.000000
vn -0.000006 0.000000 -1.000000
vn -0.000006 0.000000 -1.000000
vn 0.000000 -0.000000 1.000000
vn 0.000000 -0.000000 1.000000
vn 0.000000 -0.000000 1.000000
vn 0.000000 -0.000000 1.000000
vn -0.000003 -1.000000 0.000001
vn -0.000003 -1.000000 0.000001
vn -0.000003 -1.000000 0.000001
vn -0.000003 -1.000000 0.000001
vn -0.000002 1.000000 0.000000
vn -0.000002 1.000000 0.000000
vn -0.000002 1.000000 0.000000
vn -0.000002 1.000000 0.000000
vn -1.000000 0.000000 0.000000
vn -1.000000 0.000000 -0.000000
vn -1.000000 0.000001 -0.000000
vn -1.000000 0.000000 0.000000
vn -1.000000 -0.000001 0.000000
vn -1.000000 -0.000001 0.000000
vn -1.000000 -0.000001 0.000000
vn -1.000000 0.000001 0.000000
vn -1.000000 0.000001 0.000000
vn -1.000000 0.000001 0.000000
vn -1.000000 -0.000000 0.000000
vn -1.000000 -0.000000 0.000000
vn -1.000000 -0.000000 0.000000
vn -1.000000 -0.000000 0.000000
vn -1.000000 0.000000 0.000000
vn -1.000000 0.000000 0.000000
vn -1.000000 0.000000 0.000000
vn -1.000000 0.000000 0.000000
vn -0.000000 0.000000 1.000000
vn -0.000000 0.000000 1.000000
vn -0.000000 0.000000 1.000000
vn -0.000000 0.000000 1.000000
vn -0.000000 0.000000 -1.000000
vn -0.000000 0.000000 -1.000000
vn -0.000000 0.000000 -1.000000
vn -0.000000 0.000000 -1.000000
vn 0.000000 -0.000000 -1.000000
vn 0.000000 -0.000000 -1.000000
vn 1.000000 0.000000 0.000000
vn 1.000000 0.000000 0.000000
vn 1.000000 0.000000 0.000000
vn 1.000000 0.000000 0.000000
vn 1.000000 0.000000 -0.000000
vn 1.000000 0.000000 -0.000000
vn 0.000000 -0.000000 1.000000
vn -0.000000 -0.000000 1.000000
vn -0.000000 -0.000000 1.000000
vn -0.000000 -0.000000 1.000000
vn 0.000000 -1.000000 0.000000
vn 0.000000 -1.000000 0.000000
vn 0.000000 -1.000000 0.000000
vn 0.000000 -1.000000 0.000000
vn -0.000000 -0.000000 -1.000000
vn -0.000000 -0.000000 -1.000000
vn -0.000000 -0.000000 -1.000000
vn -0.000000 -0.000000 -1.000000
vn 0.000000 1.000000 0.000000
vn 0.000000 1.000000 0.000000
vn 0.000000 1.000000 0.000000
vn 0.000000 1.000000 0.000000
vn -1.000000 0.000000 0.000000
vn -1.000000 0.000000 0.000000
vn -1.000000 0.000000 0.000000
vn -1.000000 0.000000 0.000000
vn -1.000000 -0.000000 -0.000000
vn -1.000000 -0.000000 -0.000000
vn -1.000000 -0.000000 -0.000000
vn -1.000000 -0.000000 -0.000000
vn -1.000000 0.000000 -0.000000
vn -1.000000 0.000000 -0.000000
vn -1.000000 0.000000 -0.000000
vn -1.000000 0.000000 -0.000000
vn 0.000000 0.000000 1.000000
vn 0.000000 0.000000 1.000000
vn 0.000000 0.000000 1.000000
vn 0.000000 0.000000 1.000000
vn 0.000000 1.000000 0.000000
vn 0.000000 1.000000 0.000000
vn 0.000000 1.000000 0.000000
vn 0.000000 1.000000 0.000000
vn 0.000000 0.000000 -1.000000
vn 0.000000 0.000000 -1.000000
vn 0.000000 0.000000 -1.000000
vn 0.000000 0.000000 -1.000000
vn 0.000000 -1.000000 0.000000
vn 0.000000 -1.000000 0.000000
vn 0.000000 -1.000000 0.000000
vn 0.000000 -1.000000 0.000000
vn 0.000000 -1.000000 0.000000
vn 0.000000 -1.000000 0.000000
vn 0.000000 -1.000000 0.000000
vn 0.000000 1.000000 0.000000
vn 0.000000 1.000000 0.000000
vn 0.000000 1.000000 0.000000
vn 0.000000 1.000000 0.000000
vn 0.000000 0.000000 -1.000000
vn 0.000000 0.000000 -1.000000
vn 0.000000 -1.000000 0.000000
vn 0.000000 -1.000000 0.000000
vn 0.000000 0.000000 1.000000
vn 0.000000 0.000000 1.000000
vn -0.000000 -1.000000 0.000000
vn -0.000000 -1.000000 0.000000
vn -0.000000 -1.000000 0.000000
vn -0.000000 -1.000000 0.000000
vn -0.000000 -0.000000 -1.000000
vn -0.000000 -0.000000 -1.000000
vn 0.000000 1.000000 0.000000
vn 0.000000 1.000000 0.000000
vn 0.000000 -0.000000 1.000000
vn 0.000000 -0.000000 1.000000
vn -1.000000 0.000000 0.000000
vn -1.000000 0.000000 0.000000
vn -1.000000 0.000000 0.000000
vn -1.000000 0.000000 0.000000
vn 0.000000 0.000000 -1.000000
vn 0.000000 0.000000 -1.000000
vn 0.000000 0.000000 -1.000000
vn 0.000000 0.000000 1.000000
vn 0.000000 0.000000 1.000000
vn 0.000000 0.000000 1.000000
vn 1.000000 0.000000 0.000000
vn 1.000000 0.000000 0.000000
vn 1.000000 0.000000 0.000000
vn 1.000000 0.000000 0.000000
vn 0.000000 0.000000 -1.000000
vn 0.000000 0.000000 -1.000000
vn 0.000000 0.000000 -1.000000
vn 0.000000 0.000000 1.000000
vn 0.000000 0.000000 1.000000
vn 0.000000 0.000000 1.000000
s 1
g KichenWall kichen KichenWall
usemtl lambert12SG
f 21/17/17 22/18/18 47/19/19 41/20/20
f 22/18/21 18/21/22 53/22/23 47/19/19
s off
f 18/21/24 17/25/25 59/26/26 53/22/27
s 1
f 17/25/28 21/17/29 41/20/20 59/26/30
s off
f 94/399/31 92/400/32 25/401/33 26/402/34
s 4
f 76/231/35 55/232/36 39/233/37 62/234/38
s 5
f 64/403/39 37/404/40 45/405/41 66/406/42
s 6
f 68/244/43 43/245/44 51/246/45 70/247/46
f 72/414/47 49/415/48 57/416/49 74/417/50
s 4
f 39/233/37 38/239/51 63/240/52 62/234/38
s 5
f 38/407/53 37/404/40 64/403/39 63/408/54
s 1
f 41/20/20 40/29/55 60/32/56 59/26/30
s 4
f 40/237/57 39/233/37 55/232/36 60/238/58
s 5
f 37/404/40 42/409/59 46/410/60 45/405/41
s 1
f 42/23/61 41/20/20 47/19/19 46/24/62
s 5
f 45/405/41 44/411/63 67/412/64 66/406/42
s 6
f 44/248/65 43/245/44 68/244/43 67/249/66
f 43/245/44 48/250/67 52/251/68 51/246/45
s 1
f 48/27/69 47/19/19 53/22/23 52/28/70
s 6
f 51/246/45 50/252/71 71/253/72 70/247/46
f 50/418/73 49/415/48 72/414/47 71/419/74
f 49/415/48 54/420/75 58/421/76 57/416/49
s off
f 54/33/77 53/22/78 59/26/79 58/34/80
s 6
f 57/416/49 56/422/81 75/423/82 74/417/50
s 4
f 56/235/83 55/232/36 76/231/35 75/236/84
s 8
f 61/44/85 62/45/86 63/46/87
f 61/44/85 63/46/87 64/51/88
f 65/54/89 66/53/90 67/62/91
f 65/54/89 67/62/91 68/63/92
f 69/58/93 70/64/94 71/67/95
f 69/58/93 71/67/95 72/59/96
f 73/47/97 74/60/98 75/52/99
f 73/47/97 75/52/99 76/48/100
s 4
f 42/409/101 37/404/102 38/407/103 77/413/104
f 38/36/103 39/37/37 40/29/57 77/30/104
s 1
f 40/29/55 41/20/20 42/23/61 77/30/105
s 6
f 48/27/67 43/38/44 44/39/106 78/31/107
f 44/39/106 45/40/108 46/24/109 78/31/107
s 1
f 46/24/62 47/19/19 48/27/69 78/31/110
s 6
f 54/420/111 49/415/48 50/418/73 79/424/112
f 50/42/73 51/43/45 52/28/68 79/35/112
s 1
f 52/28/70 53/22/23 54/33/113 79/35/114
s 4
f 60/238/58 55/232/36 56/235/83 80/241/115
s 6
f 56/235/81 57/242/49 58/243/116 80/241/117
s 1
f 58/34/118 59/26/30 60/32/56 80/41/119
s off
f 81/56/120 82/49/121 84/55/122 83/65/123
f 82/49/124 81/56/125 87/57/126 88/50/127
f 83/65/128 84/55/129 86/61/130 85/66/131
f 85/66/132 86/61/133 88/50/134 87/57/135
f 89/73/136 92/82/137 94/83/138 93/77/139
f 97/71/140 98/75/141 104/81/142 103/79/143
f 98/75/144 97/71/145 99/70/146 100/76/147
f 100/76/148 99/70/149 101/74/150 102/80/151
f 102/80/152 101/74/153 103/79/154 104/81/155
f 105/86/156 106/90/157 108/91/158 107/87/159
f 106/90/160 105/86/161 109/89/162 110/94/163
f 107/87/164 108/91/165 112/95/166 111/93/167
f 110/94/168 109/89/169 111/93/170 112/95/171
f 81/425/172 83/426/173 24/427/174 23/428/175
s 9
f 83/254/176 85/255/177 91/256/178 90/257/179 24/258/180
s 10
f 87/263/181 81/264/182 23/265/183 96/266/184 95/267/185
s off
f 85/429/186 87/430/187 28/431/188 27/432/189
s 10
f 87/263/181 95/267/185 94/269/190 26/270/191 28/271/192
s 11
f 23/68/193 24/69/194 99/70/195 97/71/196
f 24/69/194 90/72/197 89/73/198 101/74/199 99/70/195
f 89/73/198 93/77/200 103/79/201 101/74/199
s 12
f 26/84/202 25/85/203 105/86/204 107/87/205
f 25/85/203 27/88/206 109/89/207 105/86/204
f 27/88/206 28/92/208 111/93/209 109/89/207
f 28/92/208 26/84/202 107/87/205 111/93/209
s off
f 98/433/210 100/434/211 30/435/212 29/436/213
f 100/272/214 102/273/215 31/274/216 30/275/217
f 102/437/218 104/438/219 32/439/220 31/440/221
f 104/276/222 98/277/223 29/278/224 32/279/225
f 108/441/226 106/442/227 33/443/228 34/444/229
f 106/280/230 110/281/231 35/282/232 33/283/233
f 110/445/234 112/446/235 36/447/236 35/448/237
f 112/284/238 108/285/239 34/286/240 36/287/241
s 8
f 61/44/85 64/51/88 66/53/90 65/54/89 84/55/242 82/49/243
f 65/54/89 68/63/92 70/64/94 69/58/93 86/61/244 84/55/242
f 69/58/93 72/59/96 74/60/98 73/47/97 88/50/245 86/61/244
f 73/47/97 76/48/100 62/45/86 61/44/85 82/49/243 88/50/245
s 9
f 92/259/246 91/256/178 85/255/177 27/260/247 25/261/248
s 11
f 93/77/200 96/78/249 23/68/193 97/71/196 103/79/201
s off
f 89/262/250 90/257/251 91/256/252 92/259/253
f 93/268/254 94/269/255 95/267/256 96/266/257
f 22/449/258 21/450/259 113/451/260 114/452/261
f 114/96/262 113/97/263 115/98/264 116/99/265
f 116/453/266 115/454/267 117/455/268 118/456/269
f 20/288/270 18/289/271 22/290/272 114/291/273
f 121/292/274 119/293/275 20/288/276 114/291/277
f 114/291/278 116/294/279 123/295/280 121/292/281
f 17/300/282 19/301/283 113/302/284 21/303/285
f 250/548/286 120/304/287 122/305/288 113/302/289 19/301/290
f 115/306/291 113/302/292 122/305/293 124/307/294
f 128/457/295 127/458/296 129/459/297 130/460/298
f 118/100/299 117/101/300 130/102/301 129/103/302
s 13
f 127/298/303 125/299/304 123/295/305 129/296/306
s 14
f 117/308/307 115/306/308 124/307/309 130/309/310
f 130/309/310 124/307/309 126/310/311 128/311/312
s 13
f 129/296/306 123/295/305 116/294/313 118/297/314
s off
f 34/104/315 33/105/316 131/106/317 132/107/318
f 33/105/319 35/108/320 133/109/321 131/106/322
f 35/108/323 36/110/324 134/111/325 133/109/326
f 36/110/327 34/104/328 132/107/329 134/111/330
f 29/118/331 30/119/332 136/120/333 135/121/334
f 30/119/335 31/122/336 137/123/337 136/120/338
f 31/122/339 32/124/340 138/125/341 137/123/342
f 32/124/343 29/118/344 135/121/345 138/125/346
f 132/461/347 131/462/348 137/463/349 138/464/350
f 135/465/351 136/466/352 140/467/353 139/468/354
f 136/312/355 137/313/356 131/314/357 140/315/358
f 138/316/359 135/317/360 139/318/361 132/319/362
f 139/116/363 140/114/364 142/115/365 141/117/366
f 131/106/367 133/109/368 143/112/369
f 140/114/370 131/106/371 143/112/372 142/115/373
f 134/111/374 132/107/375 144/113/376
f 132/107/377 139/116/378 141/117/379 144/113/380
f 133/109/381 134/111/382 144/113/383 143/112/384
f 148/469/385 147/470/386 141/471/387 142/472/388
f 143/320/389 146/321/390 148/322/391 142/323/392
s 15
f 144/324/393 259/553/394 145/327/395
s 16
f 126/126/396 125/127/397 173/128/398 167/129/399
f 125/127/400 127/130/401 179/131/402 173/128/398
s off
f 127/130/403 128/134/404 185/135/405 179/131/406
s 16
f 128/134/407 126/126/408 167/129/399 185/135/409
s off
f 220/473/410 218/474/411 151/475/412 152/476/413
s 19
f 202/328/414 181/329/415 165/330/416 188/331/417
s 20
f 190/477/418 163/478/419 171/479/420 192/480/421
s 21
f 194/341/422 169/342/423 177/343/424 196/344/425
f 198/488/426 175/489/427 183/490/428 200/491/429
s 19
f 165/330/416 164/336/430 189/337/431 188/331/417
s 20
f 164/481/432 163/478/419 190/477/418 189/482/433
s 16
f 167/129/399 166/138/434 186/141/435 185/135/409
s 19
f 166/334/436 165/330/416 181/329/415 186/335/437
s 20
f 163/478/419 168/483/438 172/484/439 171/479/420
s 16
f 168/132/440 167/129/399 173/128/398 172/133/441
s 20
f 171/479/420 170/485/442 193/486/443 192/480/421
s 21
f 170/345/444 169/342/423 194/341/422 193/346/445
f 169/342/423 174/347/446 178/348/447 177/343/424
s 16
f 174/136/448 173/128/398 179/131/402 178/137/449
s 21
f 177/343/424 176/349/450 197/350/451 196/344/425
f 176/492/452 175/489/427 198/488/426 197/493/453
f 175/489/427 180/494/454 184/495/455 183/490/428
s off
f 180/142/456 179/131/457 185/135/458 184/143/459
s 21
f 183/490/428 182/496/460 201/497/461 200/491/429
s 19
f 182/332/462 181/329/415 202/328/414 201/333/463
s 23
f 187/153/464 188/154/465 189/155/466
f 187/153/464 189/155/466 190/160/467
f 191/163/468 192/162/469 193/171/470
f 191/163/468 193/171/470 194/172/471
f 195/167/472 196/173/473 197/176/474
f 195/167/472 197/176/474 198/168/475
f 199/156/476 200/169/477 201/161/478
f 199/156/476 201/161/478 202/157/479
s 19
f 168/483/480 163/478/481 164/481/482 203/487/483
f 164/145/482 165/146/416 166/138/436 203/139/483
s 16
f 166/138/434 167/129/399 168/132/440 203/139/484
s 21
f 174/136/446 169/147/423 170/148/485 204/140/486
f 170/148/485 171/149/487 172/133/488 204/140/486
s 16
f 172/133/441 173/128/398 174/136/448 204/140/489
s 21
f 180/494/490 175/489/427 176/492/452 205/498/491
f 176/151/452 177/152/424 178/137/447 205/144/491
s 16
f 178/137/449 179/131/402 180/142/492 205/144/493
s 19
f 186/335/437 181/329/415 182/332/462 206/338/494
s 21
f 182/332/460 183/339/428 184/340/495 206/338/496
s 16
f 184/143/497 185/135/409 186/141/435 206/150/498
s off
f 207/165/499 208/158/500 210/164/501 209/174/502
f 208/158/503 207/165/504 213/166/505 214/159/506
f 209/174/507 210/164/508 212/170/509 211/175/510
f 211/175/511 212/170/512 214/159/513 213/166/514
f 215/182/515 218/191/516 220/192/517 219/186/518
f 223/180/519 224/184/520 230/190/521 229/188/522
f 224/184/523 223/180/524 225/179/525 226/185/526
f 226/185/527 225/179/528 227/183/529 228/189/530
f 228/189/531 227/183/532 229/188/533 230/190/534
f 231/195/535 232/199/536 234/200/537 233/196/538
f 232/199/539 231/195/540 235/198/541 236/203/542
f 233/196/543 234/200/544 238/204/545 237/202/546
f 236/203/547 235/198/548 237/202/549 238/204/550
f 207/499/551 209/500/552 150/501/553 149/502/554
s 24
f 209/351/555 211/352/556 217/353/557 216/354/558 150/355/559
s 25
f 213/359/560 207/360/561 149/361/562 222/362/563 221/363/564
s off
f 211/503/565 213/504/566 154/505/567 153/506/568
s 25
f 213/359/560 221/363/564 220/364/569 152/365/570 154/366/571
s 26
f 149/177/572 150/178/573 225/179/574 223/180/575
f 150/178/573 216/181/576 215/182/577 227/183/578 225/179/574
f 215/182/577 219/186/579 229/188/580 227/183/578
s 27
f 152/193/581 151/194/582 231/195/583 233/196/584
f 151/194/582 153/197/585 235/198/586 231/195/583
f 153/197/585 154/201/587 237/202/588 235/198/586
f 154/201/587 152/193/581 233/196/584 237/202/588
s off
f 224/507/589 226/508/590 156/509/591 155/510/592
f 226/367/593 228/368/594 157/369/595 156/370/596
f 228/511/597 230/512/598 158/513/599 157/514/600
f 230/371/601 224/372/602 155/373/603 158/374/604
f 234/515/605 232/516/606 159/517/607 160/518/608
f 232/375/609 236/376/610 161/377/611 159/378/612
f 236/519/613 238/520/614 162/521/615 161/522/616
f 238/379/617 234/380/618 160/381/619 162/382/620
s 23
f 187/153/464 190/160/467 192/162/469 191/163/468 210/164/621 208/158/622
f 191/163/468 194/172/471 196/173/473 195/167/472 212/170/623 210/164/621
f 195/167/472 198/168/475 200/169/477 199/156/476 214/159/624 212/170/623
f 199/156/476 202/157/479 188/154/465 187/153/464 208/158/622 214/159/624
s 24
f 218/356/625 217/353/557 211/352/556 153/357/626 151/358/627
s 26
f 219/186/579 222/187/628 149/177/572 223/180/575 229/188/580
s off
f 215/383/629 216/384/630 217/385/631 218/386/632
f 219/387/633 220/388/634 221/389/635 222/390/636
f 125/523/637 126/524/638 124/525/639 123/526/640
f 123/205/641 124/206/642 122/207/643 121/208/644
s 28
f 121/527/645 249/547/646 119/530/647
s 29
f 119/565/648 249/566/649 251/567/650 20/568/651
s off
f 160/209/652 159/210/653 239/211/654 240/212/655
f 159/210/656 161/213/657 241/214/658 239/211/659
f 161/213/660 162/215/661 242/216/662 241/214/663
f 162/215/664 160/209/665 240/212/666 242/216/667
f 155/223/668 156/224/669 244/225/670 243/226/671
f 156/224/672 157/227/673 245/228/674 244/225/675
f 157/227/676 158/229/677 246/230/678 245/228/679
f 158/229/680 155/223/681 243/226/682 246/230/683
f 240/531/684 239/532/685 245/533/686 246/534/687
f 243/535/688 244/536/689 248/537/690 247/538/691
f 244/391/692 245/392/693 239/393/694 248/394/695
f 246/395/696 243/396/697 247/397/698 240/398/699
s 30
f 247/221/700 248/219/701 257/551/702 256/549/703
s off
f 239/211/704 241/214/705 148/217/706
f 242/216/707 240/212/708 147/218/709
f 147/218/710 240/212/711 247/221/712 256/549/713
f 241/214/714 242/216/715 147/218/716 148/217/717
f 17/539/718 18/540/719 20/541/720 19/542/721
f 143/543/722 144/544/723 145/545/724 146/546/725
s 28
f 121/527/645 122/528/726 120/529/727 249/547/646
s off
f 253/571/728 252/572/729 254/573/730 255/574/731
s 29
f 20/568/651 251/567/650 250/569/732 19/570/733
s 31
f 271/593/734 268/594/735 252/595/736 253/596/737
s off
f 272/579/738 273/580/739 254/581/740 252/582/741
s 32
f 269/600/742 270/601/743 255/602/744 254/603/745
s 33
f 270/583/746 271/584/747 253/585/748 255/586/749
s off
f 261/555/750 260/556/751 262/557/752 263/558/753
f 146/220/754 248/219/755 239/211/756 148/217/757
s 30
f 257/551/702 248/219/701 146/220/758
f 146/220/758 258/552/759 257/551/702
f 259/554/760 258/552/759 146/220/758 145/222/761
s 34
f 267/562/762 264/559/763 260/556/764 261/555/765
s off
f 274/563/766 275/564/767 262/557/768 260/556/769
s 35
f 265/560/770 266/561/771 263/558/772 262/557/773
s 36
f 266/561/774 267/562/775 261/555/776 263/558/777
s 15
f 256/550/778 141/325/779 147/326/780
f 144/324/393 141/325/779 256/550/778 259/553/394
s off
f 257/551/781 258/552/782 265/560/783 264/559/784
s 35
f 258/552/785 259/554/786 266/561/771 265/560/770
s 36
f 259/554/787 256/549/788 267/562/775 266/561/774
s 34
f 256/549/789 257/551/790 264/559/763 267/562/762
s off
f 251/589/791 249/590/792 269/591/793 268/592/794
s 32
f 249/604/795 120/605/796 270/601/743 269/600/742
s 33
f 120/587/797 250/588/798 271/584/747 270/583/746
s 31
f 250/597/799 251/598/800 268/594/735 271/593/734
s off
f 268/575/801 269/576/802 273/577/803 272/578/804
f 269/600/805 254/603/806 273/606/807
f 252/595/808 268/594/809 272/599/810
f 264/559/811 265/560/812 275/564/813 274/563/814
f 265/560/815 262/557/816 275/564/817
f 260/556/818 264/559/819 274/563/820
